<?xml version="1.0" encoding="UTF-8" standalone="no"?>
<!DOCTYPE svg PUBLIC "-//W3C//DTD SVG 1.1//EN"
 "http://www.w3.org/Graphics/SVG/1.1/DTD/svg11.dtd">
<!-- Generated by graphviz version 4.0.0 (0)
 -->
<!-- Pages: 1 -->
<svg width="377pt" height="218pt"
 viewBox="0.00 0.00 376.55 218.00" xmlns="http://www.w3.org/2000/svg" xmlns:xlink="http://www.w3.org/1999/xlink">
<g id="graph0" class="graph" transform="scale(1 1) rotate(0) translate(4 214)">
<polygon fill="white" stroke="transparent" points="-4,4 -4,-214 372.55,-214 372.55,4 -4,4"/>
<!-- 1 -->
<g id="node1" class="node">
<title>1</title>
<ellipse fill="none" stroke="black" cx="43.55" cy="-105" rx="43.59" ry="18"/>
<text text-anchor="middle" x="43.55" y="-101.3" font-family="Times New Roman,serif" font-size="14.00">Машина</text>
</g>
<!-- 2 -->
<g id="node2" class="node">
<title>2</title>
<ellipse fill="none" stroke="black" cx="132.55" cy="-192" rx="70.39" ry="18"/>
<text text-anchor="middle" x="132.55" y="-188.3" font-family="Times New Roman,serif" font-size="14.00">переваливалась</text>
</g>
<!-- 2&#45;&gt;1 -->
<g id="edge1" class="edge">
<title>2&#45;&gt;1</title>
<path fill="none" stroke="black" d="M114.96,-174.21C101.42,-161.27 82.54,-143.24 67.6,-128.97"/>
<polygon fill="black" stroke="black" points="69.84,-126.27 60.19,-121.9 65,-131.33 69.84,-126.27"/>
<text text-anchor="middle" x="108.55" y="-144.8" font-family="Times New Roman,serif" font-size="14.00">nsubj</text>
</g>
<!-- 5 -->
<g id="node4" class="node">
<title>5</title>
<ellipse fill="none" stroke="black" cx="132.55" cy="-105" rx="27.1" ry="18"/>
<text text-anchor="middle" x="132.55" y="-101.3" font-family="Times New Roman,serif" font-size="14.00">утка</text>
</g>
<!-- 2&#45;&gt;5 -->
<g id="edge3" class="edge">
<title>2&#45;&gt;5</title>
<path fill="none" stroke="black" d="M132.55,-173.8C132.55,-162.16 132.55,-146.55 132.55,-133.24"/>
<polygon fill="black" stroke="black" points="136.05,-133.18 132.55,-123.18 129.05,-133.18 136.05,-133.18"/>
<text text-anchor="middle" x="147.55" y="-144.8" font-family="Times New Roman,serif" font-size="14.00">advcl</text>
</g>
<!-- 10 -->
<g id="node8" class="node">
<title>10</title>
<ellipse fill="none" stroke="black" cx="249.55" cy="-105" rx="40.89" ry="18"/>
<text text-anchor="middle" x="249.55" y="-101.3" font-family="Times New Roman,serif" font-size="14.00">обгонял</text>
</g>
<!-- 2&#45;&gt;10 -->
<g id="edge7" class="edge">
<title>2&#45;&gt;10</title>
<path fill="none" stroke="black" d="M154.83,-174.81C173.62,-161.16 200.65,-141.53 221.02,-126.72"/>
<polygon fill="black" stroke="black" points="223.27,-129.42 229.3,-120.71 219.15,-123.75 223.27,-129.42"/>
<text text-anchor="middle" x="210.55" y="-144.8" font-family="Times New Roman,serif" font-size="14.00">conj</text>
</g>
<!-- 4 -->
<g id="node3" class="node">
<title>4</title>
<ellipse fill="none" stroke="black" cx="117.55" cy="-18" rx="27" ry="18"/>
<text text-anchor="middle" x="117.55" y="-14.3" font-family="Times New Roman,serif" font-size="14.00">как</text>
</g>
<!-- 5&#45;&gt;4 -->
<g id="edge2" class="edge">
<title>5&#45;&gt;4</title>
<path fill="none" stroke="red" d="M129.51,-86.8C127.46,-75.16 124.7,-59.55 122.35,-46.24"/>
<polygon fill="red" stroke="red" points="125.76,-45.41 120.58,-36.18 118.87,-46.63 125.76,-45.41"/>
<text text-anchor="middle" x="141.05" y="-57.8" font-family="Times New Roman,serif" font-size="14.00" fill="red">mark</text>
</g>
<!-- 7 -->
<g id="node5" class="node">
<title>7</title>
<ellipse fill="none" stroke="black" cx="189.55" cy="-18" rx="27" ry="18"/>
<text text-anchor="middle" x="189.55" y="-14.3" font-family="Times New Roman,serif" font-size="14.00">и</text>
</g>
<!-- 8 -->
<g id="node6" class="node">
<title>8</title>
<ellipse fill="none" stroke="black" cx="265.55" cy="-18" rx="31.4" ry="18"/>
<text text-anchor="middle" x="265.55" y="-14.3" font-family="Times New Roman,serif" font-size="14.00">ветер</text>
</g>
<!-- 9 -->
<g id="node7" class="node">
<title>9</title>
<ellipse fill="none" stroke="black" cx="341.55" cy="-18" rx="27" ry="18"/>
<text text-anchor="middle" x="341.55" y="-14.3" font-family="Times New Roman,serif" font-size="14.00">ее</text>
</g>
<!-- 10&#45;&gt;7 -->
<g id="edge4" class="edge">
<title>10&#45;&gt;7</title>
<path fill="none" stroke="black" d="M237.98,-87.61C229.01,-74.91 216.45,-57.12 206.37,-42.84"/>
<polygon fill="black" stroke="black" points="209.1,-40.63 200.47,-34.48 203.38,-44.67 209.1,-40.63"/>
<text text-anchor="middle" x="230.05" y="-57.8" font-family="Times New Roman,serif" font-size="14.00">cc</text>
</g>
<!-- 10&#45;&gt;8 -->
<g id="edge5" class="edge">
<title>10&#45;&gt;8</title>
<path fill="none" stroke="black" d="M252.78,-86.8C254.97,-75.16 257.91,-59.55 260.42,-46.24"/>
<polygon fill="black" stroke="black" points="263.9,-46.65 262.31,-36.18 257.02,-45.36 263.9,-46.65"/>
<text text-anchor="middle" x="273.55" y="-57.8" font-family="Times New Roman,serif" font-size="14.00">nsubj</text>
</g>
<!-- 10&#45;&gt;9 -->
<g id="edge6" class="edge">
<title>10&#45;&gt;9</title>
<path fill="none" stroke="black" d="M269.2,-88.77C276.67,-82.79 285.15,-75.75 292.55,-69 302.13,-60.26 312.24,-50.12 320.77,-41.26"/>
<polygon fill="black" stroke="black" points="323.45,-43.53 327.81,-33.87 318.38,-38.7 323.45,-43.53"/>
<text text-anchor="middle" x="316.55" y="-57.8" font-family="Times New Roman,serif" font-size="14.00">obj</text>
</g>
</g>
</svg>
